<?xml version="1.0" encoding="UTF-8"?>
<svg xmlns="http://www.w3.org/2000/svg" viewBox="0 0 512 512">
  <defs>
    <style>
      .cls-1 {
        fill: #231f20;
      }

      .cls-2 {
        fill: #fff;
      }

      .cls-3 {
        fill: #ec008c;
      }
    </style>
  </defs>
  <g id="Layer_2" data-name="Layer 2">
    <circle class="cls-3" cx="256" cy="256" r="256"/>
  </g>
  <g id="Layer_1" data-name="Layer 1">
    <g>
      <g>
        <path class="cls-1" d="M70.51,432.44c-92.45-99.6-92.53-252.97-.19-352.67,15.34-14.02,31.81-26.13,49.74-36.64,14.46-7.06,22.09-3.6,26.77,11.09,7.82,24.56,3.53,54.85.35,80.86-4.87,39.76-11.76,94.22-47.8,119.45,12.8,12.84,22.8,28.8,27.87,46.2,8.81,30.2,11.79,62.63,17.46,93.46,6.06,32.97,13.62,67.89,28.81,98.23-14.76-4.81-28.96-10.63-42.84-17.59-12.44-21.94-21.98-45.13-29.19-69.28-2.43-8.38-4.69-16.8-6.79-25.27-2.63-10.98-4.84-22.04-6.82-33.16-3.35-20.22-5.83-41.45-12.77-60.85-3.09-8.64-8.25-20.75-19.08-21-3.45-.06-5.16-.09-8.56-.16,2.06,68.26,19.47,134.98,55.54,193.3-11.46-7.95-22.22-16.55-32.5-25.97ZM48.36,227.21c3.98-.24,5.99-.36,10.03-.58,11.91-.54,18.86-11.9,23.17-21.62,8.37-18.87,11.72-40.14,15.61-60.23,1.06-5.46,18.12-73.92-3.92-62.91-3.25,1.48-4.86,2.23-8.04,3.78-21.21,44.68-33.04,92.31-36.85,141.56Z"/>
        <path class="cls-1" d="M253.07.02c30.1-.38,46.91,36.52,56.35,59.76,25.02,61.59,31.55,130.67,31.55,196.22,0,65.57-6.61,134.74-31.89,196.26-9.68,23.54-26.83,60.17-57.25,59.71-30.65-.47-48.25-38.45-58.2-62.2-26.25-62.66-33.58-133.06-33.25-200.04.31-63.79,7.94-130.87,33.92-190.16C204.75,35.7,222.62.4,253.07.02ZM251.43,34.29c-15.19-.09-18.79,32.11-20.48,42.11-9.9,58.45-9.48,120.18-9.48,179.61s-.42,121.16,9.48,179.61c1.69,10,5.29,42.2,20.48,42.11,15.33-.09,18.28-31.6,19.84-41.75,9.02-58.68,8.13-120.39,8.13-179.97s.86-121.15-8.12-179.79c-1.56-10.15-4.5-41.82-19.84-41.92Z"/>
        <path class="cls-1" d="M337.96,492.58c19.86-77.02,27.92-156.95,27.93-236.39.01-79.47-8.03-159.43-27.86-236.49,20.86,6.75,40.51,15.55,59.41,26.65,16.96,10.29,31.17,25.73,44.23,40.44,18.24,20.53,35.05,43.38,44.81,69.04,10.8,28.4,14.98,67.61-15.26,86.23,38.07,21.05,37.23,69.58,24.14,104.91-10.12,27.32-27.92,51.47-47.34,73.27-13.33,14.97-27.64,30.87-44.6,41.83-20.65,12.91-42.3,22.98-65.47,30.5ZM419.6,224.19c5.34.25,10.68.51,16.02.78,27.58,1.25,11.31-68.41,8.5-79.03-4.79-18.09-11.73-36.2-21.78-52.37-5.03-8.1-11.43-17.97-20.54-21.97-4.67-1.92-7.03-2.85-11.81-4.62,17.36,50.85,26.61,103.62,29.61,157.21ZM389.89,445.3c4.82-1.79,7.2-2.73,11.9-4.67,10.69-4.56,18.47-15.52,24.59-24.91,11.5-17.66,19.45-37.53,24.62-57.6,5.59-21.72,9.52-46.35,4.32-68.92-2.4-10.41-8.16-24.53-20.98-24.29-4.67.07-9.34.13-14.01.19-1.22,61.34-10.55,122.07-30.44,180.2Z"/>
      </g>
      <g>
        <path class="cls-2" d="M70.51,432.44c-92.45-99.6-92.53-252.97-.19-352.67,15.34-14.02,31.81-26.13,49.74-36.64,14.46-7.06,22.09-3.6,26.77,11.09,7.82,24.56,3.53,54.85.35,80.86-4.87,39.76-11.76,94.22-47.8,119.45,12.8,12.84,22.8,28.8,27.87,46.2,8.81,30.2,11.79,62.63,17.46,93.46,6.06,32.97,13.62,67.89,28.81,98.23-14.76-4.81-28.96-10.63-42.84-17.59-12.44-21.94-21.98-45.13-29.19-69.28-2.43-8.38-4.69-16.8-6.79-25.27-2.63-10.98-4.84-22.04-6.82-33.16-3.35-20.22-5.83-41.45-12.77-60.85-3.09-8.64-8.25-20.75-19.08-21-3.45-.06-5.16-.09-8.56-.16,2.06,68.26,19.47,134.98,55.54,193.3-11.46-7.95-22.22-16.55-32.5-25.97ZM48.36,227.21c3.98-.24,5.99-.36,10.03-.58,11.91-.54,18.86-11.9,23.17-21.62,8.37-18.87,11.72-40.14,15.61-60.23,1.06-5.46,18.12-73.92-3.92-62.91-3.25,1.48-4.86,2.23-8.04,3.78-21.21,44.68-33.04,92.31-36.85,141.56Z"/>
        <path class="cls-2" d="M253.07.02c30.1-.38,46.91,36.52,56.35,59.76,25.02,61.59,31.55,130.67,31.55,196.22,0,65.57-6.61,134.74-31.89,196.26-9.68,23.54-26.83,60.17-57.25,59.71-30.65-.47-48.25-38.45-58.2-62.2-26.25-62.66-33.58-133.06-33.25-200.04.31-63.79,7.94-130.87,33.92-190.16C204.75,35.7,222.62.4,253.07.02ZM251.43,34.29c-15.19-.09-18.79,32.11-20.48,42.11-9.9,58.45-9.48,120.18-9.48,179.61s-.42,121.16,9.48,179.61c1.69,10,5.29,42.2,20.48,42.11,15.33-.09,18.28-31.6,19.84-41.75,9.02-58.68,8.13-120.39,8.13-179.97s.86-121.15-8.12-179.79c-1.56-10.15-4.5-41.82-19.84-41.92Z"/>
        <path class="cls-2" d="M337.96,492.58c19.86-77.02,27.92-156.95,27.93-236.39.01-79.47-8.03-159.43-27.86-236.49,20.86,6.75,40.51,15.55,59.41,26.65,16.96,10.29,31.17,25.73,44.23,40.44,18.24,20.53,35.05,43.38,44.81,69.04,10.8,28.4,14.98,67.61-15.26,86.23,38.07,21.05,37.23,69.58,24.14,104.91-10.12,27.32-27.92,51.47-47.34,73.27-13.33,14.97-27.64,30.87-44.6,41.83-20.65,12.91-42.3,22.98-65.47,30.5ZM419.6,224.19c5.34.25,10.68.51,16.02.78,27.58,1.25,11.31-68.41,8.5-79.03-4.79-18.09-11.73-36.2-21.78-52.37-5.03-8.1-11.43-17.97-20.54-21.97-4.67-1.92-7.03-2.85-11.81-4.62,17.36,50.85,26.61,103.62,29.61,157.21ZM389.89,445.3c4.82-1.79,7.2-2.73,11.9-4.67,10.69-4.56,18.47-15.52,24.59-24.91,11.5-17.66,19.45-37.53,24.62-57.6,5.59-21.72,9.52-46.35,4.32-68.92-2.4-10.41-8.16-24.53-20.98-24.29-4.67.07-9.34.13-14.01.19-1.22,61.34-10.55,122.07-30.44,180.2Z"/>
      </g>
    </g>
  </g>
</svg>