<?xml version="1.0" encoding="UTF-8"?>
<svg xmlns="http://www.w3.org/2000/svg" viewBox="0 0 512 512">
  <defs>
    <style>
      .cls-1 {
        fill: #231f20;
      }

      .cls-2 {
        fill: none;
        stroke: #fff;
        stroke-width: 4px;
      }

      .cls-3 {
        fill: #d96673;
      }

      .cls-4 {
        fill: #662d91;
      }
    </style>
  </defs>
  <g id="Layer_3" data-name="Layer 3">
    <rect class="cls-4" x="0" width="512" height="512" rx="162.09" ry="162.09"/>
  </g>
  <g id="Layer_1" data-name="Layer 1">
    <g>
      <g>
        <path class="cls-1" d="M70.51,432.44c-92.45-99.6-92.53-252.97-.19-352.67,7.89-7.21,16.04-13.95,24.6-20.35,9.15-8.59,4.11,11.99,3.75,13.68-5.2,24.25-12.17,48.69-17.72,73.07-5.12,22.52-9.36,45.38-15.23,67.78-3.64,13.89-7.61,28.98-16.31,40.69,6.76,13.3,11.52,27.61,14.57,42.18,5.93,28.32,10.71,56.95,18.67,84.65,8.7,30.27,20.7,60.41,37.33,87.54-6.83-3.89-13.47-8.15-19.93-12.63-13.6-19.52-24.73-40.39-33.73-62.39-3.07-7.62-5.78-15.36-8.37-23.15-3.16-10.09-5.95-20.22-8.39-30.51-4.1-18.63-6.94-37.55-11.3-56.12-1.27-5.43-2.87-18.17-9.93-19.48-1.7-.04-2.55-.05-4.24-.09,2.38,65.92,22.92,128.97,62.7,181.86-5.58-4.53-10.98-9.2-16.28-14.06ZM25.1,228.71c1.98-.14,2.97-.2,4.96-.34,7.77-1.14,10.6-13.59,12.49-19.63,5.65-18.14,9.25-37.05,14.22-55.27,4.48-16.45,10.18-32.73,14.8-49.23.58-2.06,4.73-13.35-.93-11.08-1.58.87-2.37,1.3-3.93,2.18-23.61,41.21-37.22,86.12-41.6,133.36Z"/>
        <path class="cls-1" d="M158.33,19.29c15.19-7.03,11.92,40.49,11.84,45.57-.99,63.74-4.94,127.48-4.94,191.14,0,63.64,3.94,127.38,4.77,191.1.07,5.23,3.23,52.58-12.23,45.38-7.72-3.6-13.68-11.86-18.51-18.69-9.33-13.19-16.97-27.63-23.74-42.28-26.21-56.72-37.61-119.49-36.97-181.23.6-58.86,12.4-118.4,37.9-172.21,6.59-13.9,14.02-27.59,23.01-40.11,4.96-6.91,11.03-15.04,18.87-18.67ZM147.85,50.76c-8.01.96-15.68,29.85-18.88,40.38-16.08,52.82-21.67,109.78-21.67,164.86s5.59,112.04,21.67,164.86c3.2,10.53,10.93,39.41,18.88,40.38,4.82.59.48-31.36-.17-36.08-7.65-56.12-13.07-112.55-13.07-169.15,0-56.55,5.39-112.93,13.03-168.99.65-4.74,4.97-36.81.2-36.24Z"/>
        <path class="cls-1" d="M197.81,498.82c-27.71-158.53-27.71-326.81-.05-485.35,11.54-2.35,23.04-4.05,34.77-5.16,12.85-1.09,18,16.1,20.58,25.57,7.65,28.05,8.03,58.47,8.2,87.19.15,24.67-.67,49.82-5.21,74.25-2.79,15.03-6.84,31.57-16.71,43.68,12.49,13.04,16.96,33.09,20.14,50.24,5.59,30.14,6.45,61.21,6.14,91.66-.31,31.44-.87,64.47-8.69,95.25-2.42,9.53-7.24,28.97-20.45,28.13-13.07-1.06-25.86-2.86-38.71-5.47ZM208.7,220.85c3.74-.05,5.62-.07,9.38-.11,8.13-1.47,9.19-18.97,10.05-24.77,3.48-23.52,3.96-47.61,4.54-71.28.5-20.26,1.26-41.01-1.03-61.25-.55-4.85-.89-17.96-7.66-18.73-2.85.23-4.27.35-7.11.63-4.88,58.39-7.37,116.92-8.18,175.51ZM216.91,466.99c2.86.28,4.29.41,7.17.64,7.98-.04,9-15.23,9.73-20.57,3.06-22.32,2.36-45.4,1.92-67.79-.55-27.89-1.06-56.34-5.56-84-1.18-7.24-3.08-28.29-13.49-29.18-3.28,0-4.92-.01-8.19-.03.33,67.06,2.81,134.09,8.41,200.93Z"/>
        <path class="cls-1" d="M323.31,15.58c2.89,14.09,5.46,28.23,7.77,42.43-10.24-1.76-20.49-3.19-30.81-4.33,4.43,49.89,6.96,99.9,8.09,149.97,10.29.23,20.58.51,30.87.85.58,17.83.87,35.65.88,53.48-10.4.01-20.8.02-31.2.03-.15,66.97-2.72,133.92-8.66,200.63,12.06-1.33,23.99-3.08,35.91-5.28-2.48,14.12-5.24,28.17-8.33,42.16-18.17,4.67-36.39,7.61-55.1,8.95,7.9-165.26,7.9-331.38.01-496.64,17.13,1.2,33.88,3.76,50.58,7.75Z"/>
        <path class="cls-1" d="M334.58,493.61c19.02-77.52,26.7-157.7,26.72-237.42.01-79.75-7.65-159.96-26.65-237.51,10.54,3.25,20.79,6.98,30.96,11.26,13.34,6.56,22.26,22.96,29.52,35.02,14.84,24.66,25.29,52.24,31.43,80.27,7.17,32.72,13.43,79.7-8.31,109.31,6.84,13.53,11.11,28.43,11.87,43.57,1.43,28.57-3.3,58.06-9.77,85.61-6.83,29.06-16.67,57.32-28.04,85.12-6.86,3.97-13.93,7.59-21.12,10.94,7.65-22.71,14.1-45.77,19.77-69.05,1.99-8.68,3.83-17.39,5.52-26.14,2.1-11.4,3.94-22.82,5.52-34.31,2.64-20.58,4.72-41.78,2.32-62.5-.63-5.46-1.57-20.78-9.46-21.62-1.94.02-2.91.03-4.85.06-1.2,74.56-11.07,149.16-34.36,220.18-6.97,2.62-13.96,5.02-21.07,7.22ZM389.45,223.69c2.28.08,3.42.12,5.68.21,21.37-.28,8.47-72.47,6.93-81.37-3.35-19.37-8.04-39.17-15.96-57.45-2.92-6.74-7.14-17.97-14.79-20.86-1.85-.55-2.78-.82-4.65-1.35,13.44,52.69,20.51,106.52,22.79,160.82Z"/>
        <path class="cls-1" d="M441.68,79.77c8.7,9.39,16.67,19.14,24.14,29.54-5.22-3.34-10.54-6.52-15.95-9.56,62.01,107.65,54.4,246.18-22.09,344.67-5.91,4.84-12.07,9.39-18.37,13.7,68.06-109.45,73.35-253.09,19.27-369.3-5.89-2.79-11.87-5.41-17.9-7.88-5.09-12.49-10.67-24.69-16.87-36.67,17.19,10.28,32.98,21.99,47.77,35.5Z"/>
      </g>
      <g>
        <path class="cls-3" d="M70.51,432.44c-92.45-99.6-92.53-252.97-.19-352.67,7.89-7.21,16.04-13.95,24.6-20.35,9.15-8.59,4.11,11.99,3.75,13.68-5.2,24.25-12.17,48.69-17.72,73.07-5.12,22.52-9.36,45.38-15.23,67.78-3.64,13.89-7.61,28.98-16.31,40.69,6.76,13.3,11.52,27.61,14.57,42.18,5.93,28.32,10.71,56.95,18.67,84.65,8.7,30.27,20.7,60.41,37.33,87.54-6.83-3.89-13.47-8.15-19.93-12.63-13.6-19.52-24.73-40.39-33.73-62.39-3.07-7.62-5.78-15.36-8.37-23.15-3.16-10.09-5.95-20.22-8.39-30.51-4.1-18.63-6.94-37.55-11.3-56.12-1.27-5.43-2.87-18.17-9.93-19.48-1.7-.04-2.55-.05-4.24-.09,2.38,65.92,22.92,128.97,62.7,181.86-5.58-4.53-10.98-9.2-16.28-14.06ZM25.1,228.71c1.98-.14,2.97-.2,4.96-.34,7.77-1.14,10.6-13.59,12.49-19.63,5.65-18.14,9.25-37.05,14.22-55.27,4.48-16.45,10.18-32.73,14.8-49.23.58-2.06,4.73-13.35-.93-11.08-1.58.87-2.37,1.3-3.93,2.18-23.61,41.21-37.22,86.12-41.6,133.36Z"/>
        <path class="cls-3" d="M158.33,19.29c15.19-7.03,11.92,40.49,11.84,45.57-.99,63.74-4.94,127.48-4.94,191.14,0,63.64,3.94,127.38,4.77,191.1.07,5.23,3.23,52.58-12.23,45.38-7.72-3.6-13.68-11.86-18.51-18.69-9.33-13.19-16.97-27.63-23.74-42.28-26.21-56.72-37.61-119.49-36.97-181.23.6-58.86,12.4-118.4,37.9-172.21,6.59-13.9,14.02-27.59,23.01-40.11,4.96-6.91,11.03-15.04,18.87-18.67ZM147.85,50.76c-8.01.96-15.68,29.85-18.88,40.38-16.08,52.82-21.67,109.78-21.67,164.86s5.59,112.04,21.67,164.86c3.2,10.53,10.93,39.41,18.88,40.38,4.82.59.48-31.36-.17-36.08-7.65-56.12-13.07-112.55-13.07-169.15,0-56.55,5.39-112.93,13.03-168.99.65-4.74,4.97-36.81.2-36.24Z"/>
        <path class="cls-3" d="M197.81,498.82c-27.71-158.53-27.71-326.81-.05-485.35,11.54-2.35,23.04-4.05,34.77-5.16,12.85-1.09,18,16.1,20.58,25.57,7.65,28.05,8.03,58.47,8.2,87.19.15,24.67-.67,49.82-5.21,74.25-2.79,15.03-6.84,31.57-16.71,43.68,12.49,13.04,16.96,33.09,20.14,50.24,5.59,30.14,6.45,61.21,6.14,91.66-.31,31.44-.87,64.47-8.69,95.25-2.42,9.53-7.24,28.97-20.45,28.13-13.07-1.06-25.86-2.86-38.71-5.47ZM208.7,220.85c3.74-.05,5.62-.07,9.38-.11,8.13-1.47,9.19-18.97,10.05-24.77,3.48-23.52,3.96-47.61,4.54-71.28.5-20.26,1.26-41.01-1.03-61.25-.55-4.85-.89-17.96-7.66-18.73-2.85.23-4.27.35-7.11.63-4.88,58.39-7.37,116.92-8.18,175.51ZM216.91,466.99c2.86.28,4.29.41,7.17.64,7.98-.04,9-15.23,9.73-20.57,3.06-22.32,2.36-45.4,1.92-67.79-.55-27.89-1.06-56.34-5.56-84-1.18-7.24-3.08-28.29-13.49-29.18-3.28,0-4.92-.01-8.19-.03.33,67.06,2.81,134.09,8.41,200.93Z"/>
        <path class="cls-3" d="M323.31,15.58c2.89,14.09,5.46,28.23,7.77,42.43-10.24-1.76-20.49-3.19-30.81-4.33,4.43,49.89,6.96,99.9,8.09,149.97,10.29.23,20.58.51,30.87.85.58,17.83.87,35.65.88,53.48-10.4.01-20.8.02-31.2.03-.15,66.97-2.72,133.92-8.66,200.63,12.06-1.33,23.99-3.08,35.91-5.28-2.48,14.12-5.24,28.17-8.33,42.16-18.17,4.67-36.39,7.61-55.1,8.95,7.9-165.26,7.9-331.38.01-496.64,17.13,1.2,33.88,3.76,50.58,7.75Z"/>
        <path class="cls-3" d="M334.58,493.61c19.02-77.52,26.7-157.7,26.72-237.42.01-79.75-7.65-159.96-26.65-237.51,10.54,3.25,20.79,6.98,30.96,11.26,13.34,6.56,22.26,22.96,29.52,35.02,14.84,24.66,25.29,52.24,31.43,80.27,7.17,32.72,13.43,79.7-8.31,109.31,6.84,13.53,11.11,28.43,11.87,43.57,1.43,28.57-3.3,58.06-9.77,85.61-6.83,29.06-16.67,57.32-28.04,85.12-6.86,3.97-13.93,7.59-21.12,10.94,7.65-22.71,14.1-45.77,19.77-69.05,1.99-8.68,3.83-17.39,5.52-26.14,2.1-11.4,3.94-22.82,5.52-34.31,2.64-20.58,4.72-41.78,2.32-62.5-.63-5.46-1.57-20.78-9.46-21.62-1.94.02-2.91.03-4.85.06-1.2,74.56-11.07,149.16-34.36,220.18-6.97,2.62-13.96,5.02-21.07,7.22ZM389.45,223.69c2.28.08,3.42.12,5.68.21,21.37-.28,8.47-72.47,6.93-81.37-3.35-19.37-8.04-39.17-15.96-57.45-2.92-6.74-7.14-17.97-14.79-20.86-1.85-.55-2.78-.82-4.65-1.35,13.44,52.69,20.51,106.52,22.79,160.82Z"/>
        <path class="cls-3" d="M441.68,79.77c8.7,9.39,16.67,19.14,24.14,29.54-5.22-3.34-10.54-6.52-15.95-9.56,62.01,107.65,54.4,246.18-22.09,344.67-5.91,4.84-12.07,9.39-18.37,13.7,68.06-109.45,73.35-253.09,19.27-369.3-5.89-2.79-11.87-5.41-17.9-7.88-5.09-12.49-10.67-24.69-16.87-36.67,17.19,10.28,32.98,21.99,47.77,35.5Z"/>
      </g>
      <g>
        <path class="cls-2" d="M70.51,432.44c-92.45-99.6-92.53-252.97-.19-352.67,7.89-7.21,16.04-13.95,24.6-20.35,9.15-8.59,4.11,11.99,3.75,13.68-5.2,24.25-12.17,48.69-17.72,73.07-5.12,22.52-9.36,45.38-15.23,67.78-3.64,13.89-7.61,28.98-16.31,40.69,6.76,13.3,11.52,27.61,14.57,42.18,5.93,28.32,10.71,56.95,18.67,84.65,8.7,30.27,20.7,60.41,37.33,87.54-6.83-3.89-13.47-8.15-19.93-12.63-13.6-19.52-24.73-40.39-33.73-62.39-3.07-7.62-5.78-15.36-8.37-23.15-3.16-10.09-5.95-20.22-8.39-30.51-4.1-18.63-6.94-37.55-11.3-56.12-1.27-5.43-2.87-18.17-9.93-19.48-1.7-.04-2.55-.05-4.24-.09,2.38,65.92,22.92,128.97,62.7,181.86-5.58-4.53-10.98-9.2-16.28-14.06ZM25.1,228.71c1.98-.14,2.97-.2,4.96-.34,7.77-1.14,10.6-13.59,12.49-19.63,5.65-18.14,9.25-37.05,14.22-55.27,4.48-16.45,10.18-32.73,14.8-49.23.58-2.06,4.73-13.35-.93-11.08-1.58.87-2.37,1.3-3.93,2.18-23.61,41.21-37.22,86.12-41.6,133.36Z"/>
        <path class="cls-2" d="M158.33,19.29c15.19-7.03,11.92,40.49,11.84,45.57-.99,63.74-4.94,127.48-4.94,191.14,0,63.64,3.94,127.38,4.77,191.1.07,5.23,3.23,52.58-12.23,45.38-7.72-3.6-13.68-11.86-18.51-18.69-9.33-13.19-16.97-27.63-23.74-42.28-26.21-56.72-37.61-119.49-36.97-181.23.6-58.86,12.4-118.4,37.9-172.21,6.59-13.9,14.02-27.59,23.01-40.11,4.96-6.91,11.03-15.04,18.87-18.67ZM147.85,50.76c-8.01.96-15.68,29.85-18.88,40.38-16.08,52.82-21.67,109.78-21.67,164.86s5.59,112.04,21.67,164.86c3.2,10.53,10.93,39.41,18.88,40.38,4.82.59.48-31.36-.17-36.08-7.65-56.12-13.07-112.55-13.07-169.15,0-56.55,5.39-112.93,13.03-168.99.65-4.74,4.97-36.81.2-36.24Z"/>
        <path class="cls-2" d="M197.81,498.82c-27.71-158.53-27.71-326.81-.05-485.35,11.54-2.35,23.04-4.05,34.77-5.16,12.85-1.09,18,16.1,20.58,25.57,7.65,28.05,8.03,58.47,8.2,87.19.15,24.67-.67,49.82-5.21,74.25-2.79,15.03-6.84,31.57-16.71,43.68,12.49,13.04,16.96,33.09,20.14,50.24,5.59,30.14,6.45,61.21,6.14,91.66-.31,31.44-.87,64.47-8.69,95.25-2.42,9.53-7.24,28.97-20.45,28.13-13.07-1.06-25.86-2.86-38.71-5.47ZM208.7,220.85c3.74-.05,5.62-.07,9.38-.11,8.13-1.47,9.19-18.97,10.05-24.77,3.48-23.52,3.96-47.61,4.54-71.28.5-20.26,1.26-41.01-1.03-61.25-.55-4.85-.89-17.96-7.66-18.73-2.85.23-4.27.35-7.11.63-4.88,58.39-7.37,116.92-8.18,175.51ZM216.91,466.99c2.86.28,4.29.41,7.17.64,7.98-.04,9-15.23,9.73-20.57,3.06-22.32,2.36-45.4,1.92-67.79-.55-27.89-1.06-56.34-5.56-84-1.18-7.24-3.08-28.29-13.49-29.18-3.28,0-4.92-.01-8.19-.03.33,67.06,2.81,134.09,8.41,200.93Z"/>
        <path class="cls-2" d="M323.31,15.58c2.89,14.09,5.46,28.23,7.77,42.43-10.24-1.76-20.49-3.19-30.81-4.33,4.43,49.89,6.96,99.9,8.09,149.97,10.29.23,20.58.51,30.87.85.58,17.83.87,35.65.88,53.48-10.4.01-20.8.02-31.2.03-.15,66.97-2.72,133.92-8.66,200.63,12.06-1.33,23.99-3.08,35.91-5.28-2.48,14.12-5.24,28.17-8.33,42.16-18.17,4.67-36.39,7.61-55.1,8.95,7.9-165.26,7.9-331.38.01-496.64,17.13,1.2,33.88,3.76,50.58,7.75Z"/>
        <path class="cls-2" d="M334.58,493.61c19.02-77.52,26.7-157.7,26.72-237.42.01-79.75-7.65-159.96-26.65-237.51,10.54,3.25,20.79,6.98,30.96,11.26,13.34,6.56,22.26,22.96,29.52,35.02,14.84,24.66,25.29,52.24,31.43,80.27,7.17,32.72,13.43,79.7-8.31,109.31,6.84,13.53,11.11,28.43,11.87,43.57,1.43,28.57-3.3,58.06-9.77,85.61-6.83,29.06-16.67,57.32-28.04,85.12-6.86,3.97-13.93,7.59-21.12,10.94,7.65-22.71,14.1-45.77,19.77-69.05,1.99-8.68,3.83-17.39,5.52-26.14,2.1-11.4,3.94-22.82,5.52-34.31,2.64-20.58,4.72-41.78,2.32-62.5-.63-5.46-1.57-20.78-9.46-21.62-1.94.02-2.91.03-4.85.06-1.2,74.56-11.07,149.16-34.36,220.18-6.97,2.62-13.96,5.02-21.07,7.22ZM389.45,223.69c2.28.08,3.42.12,5.68.21,21.37-.28,8.47-72.47,6.93-81.37-3.35-19.37-8.04-39.17-15.96-57.45-2.92-6.74-7.14-17.97-14.79-20.86-1.85-.55-2.78-.82-4.65-1.35,13.44,52.69,20.51,106.52,22.79,160.82Z"/>
        <path class="cls-2" d="M441.68,79.77c8.7,9.39,16.67,19.14,24.14,29.54-5.22-3.34-10.54-6.52-15.95-9.56,62.01,107.65,54.4,246.18-22.09,344.67-5.91,4.84-12.07,9.39-18.37,13.7,68.06-109.45,73.35-253.09,19.27-369.3-5.89-2.79-11.87-5.41-17.9-7.88-5.09-12.49-10.67-24.69-16.87-36.67,17.19,10.28,32.98,21.99,47.77,35.5Z"/>
      </g>
    </g>
  </g>
</svg>